<svg width="1672" height="17" viewBox="0 0 1672 17" fill="none" xmlns="http://www.w3.org/2000/svg">
<path d="M0.125488 8.26123C0.125488 12.6795 3.70721 16.2612 8.12549 16.2612C12.5438 16.2612 16.1255 12.6795 16.1255 8.26123C16.1255 3.84295 12.5438 0.26123 8.12549 0.26123C3.70721 0.26123 0.125488 3.84295 0.125488 8.26123ZM1655.87 8.26123C1655.87 12.6795 1659.46 16.2612 1663.87 16.2612C1668.29 16.2612 1671.87 12.6795 1671.87 8.26123C1671.87 3.84295 1668.29 0.26123 1663.87 0.26123C1659.46 0.26123 1655.87 3.84295 1655.87 8.26123ZM8.12549 9.76123H11.125V6.76123H8.12549V9.76123ZM17.1241 9.76123H23.1232V6.76123H17.1241V9.76123ZM29.1223 9.76123H35.1214V6.76123H29.1223V9.76123ZM41.1205 9.76123H47.1196V6.76123H41.1205V9.76123ZM53.1187 9.76123H59.1178V6.76123H53.1187V9.76123ZM65.1169 9.76123H71.116V6.76123H65.1169V9.76123ZM77.115 9.76123H83.1141V6.76123H77.115V9.76123ZM89.1132 9.76123H95.1123V6.76123H89.1132V9.76123ZM101.111 9.76123H107.11V6.76123H101.111V9.76123ZM113.11 9.76123H119.109V6.76123H113.11V9.76123ZM125.108 9.76123H131.107V6.76123H125.108V9.76123ZM137.106 9.76123H143.105V6.76123H137.106V9.76123ZM149.104 9.76123H155.103V6.76123H149.104V9.76123ZM161.102 9.76123H167.101V6.76123H161.102V9.76123ZM173.1 9.76123H179.1V6.76123H173.1V9.76123ZM185.099 9.76123H191.098V6.76123H185.099V9.76123ZM197.097 9.76123H203.096V6.76123H197.097V9.76123ZM209.095 9.76123H215.094V6.76123H209.095V9.76123ZM221.093 9.76123H227.092V6.76123H221.093V9.76123ZM233.091 9.76123H239.09V6.76123H233.091V9.76123ZM245.089 9.76123H251.089V6.76123H245.089V9.76123ZM257.088 9.76123H263.087V6.76123H257.088V9.76123ZM269.086 9.76123H275.085V6.76123H269.086V9.76123ZM281.084 9.76123H287.083V6.76123H281.084V9.76123ZM293.082 9.76123H299.081V6.76123H293.082V9.76123ZM305.08 9.76123H311.079V6.76123H305.08V9.76123ZM317.078 9.76123H323.078V6.76123H317.078V9.76123ZM329.077 9.76123H335.076V6.76123H329.077V9.76123ZM341.075 9.76123H347.074V6.76123H341.075V9.76123ZM353.073 9.76123H359.072V6.76123H353.073V9.76123ZM365.071 9.76123H371.07V6.76123H365.071V9.76123ZM377.069 9.76123H383.068V6.76123H377.069V9.76123ZM389.068 9.76123H395.067V6.76123H389.068V9.76123ZM401.066 9.76123H407.065V6.76123H401.066V9.76123ZM413.064 9.76123H419.063V6.76123H413.064V9.76123ZM425.062 9.76123H431.061V6.76123H425.062V9.76123ZM437.06 9.76123H443.059V6.76123H437.06V9.76123ZM449.058 9.76123H455.057V6.76123H449.058V9.76123ZM461.057 9.76123H467.056V6.76123H461.057V9.76123ZM473.055 9.76123H479.054V6.76123H473.055V9.76123ZM485.053 9.76123H491.052V6.76123H485.053V9.76123ZM497.051 9.76123H503.05V6.76123H497.051V9.76123ZM509.049 9.76123H515.048V6.76123H509.049V9.76123ZM521.047 9.76123H527.046V6.76123H521.047V9.76123ZM533.046 9.76123H539.045V6.76123H533.046V9.76123ZM545.044 9.76123H551.043V6.76123H545.044V9.76123ZM557.042 9.76123H563.041V6.76123H557.042V9.76123ZM569.04 9.76123H575.039V6.76123H569.04V9.76123ZM581.038 9.76123H587.037V6.76123H581.038V9.76123ZM593.036 9.76123H599.035V6.76123H593.036V9.76123ZM605.035 9.76123H611.034V6.76123H605.035V9.76123ZM617.033 9.76123H623.032V6.76123H617.033V9.76123ZM629.031 9.76123H635.03V6.76123H629.031V9.76123ZM641.029 9.76123H647.028V6.76123H641.029V9.76123ZM653.027 9.76123H659.026V6.76123H653.027V9.76123ZM665.025 9.76123H671.024V6.76123H665.025V9.76123ZM677.024 9.76123H683.023V6.76123H677.024V9.76123ZM689.022 9.76123H695.021V6.76123H689.022V9.76123ZM701.02 9.76123H707.019V6.76123H701.02V9.76123ZM713.018 9.76123H719.017V6.76123H713.018V9.76123ZM725.016 9.76123H731.015V6.76123H725.016V9.76123ZM737.014 9.76123H743.013V6.76123H737.014V9.76123ZM749.013 9.76123H755.012V6.76123H749.013V9.76123ZM761.011 9.76123H767.01V6.76123H761.011V9.76123ZM773.009 9.76123H779.008V6.76123H773.009V9.76123ZM785.007 9.76123H791.006V6.76123H785.007V9.76123ZM797.005 9.76123H803.004V6.76123H797.005V9.76123ZM809.003 9.76123H815.003V6.76123H809.003V9.76123ZM821.002 9.76123H827.001V6.76123H821.002V9.76123ZM833 9.76123H838.999V6.76123H833V9.76123ZM844.998 9.76123H850.997V6.76123H844.998V9.76123ZM856.996 9.76123H862.995V6.76123H856.996V9.76123ZM868.994 9.76123H874.993V6.76123H868.994V9.76123ZM880.992 9.76123H886.992V6.76123H880.992V9.76123ZM892.991 9.76123H898.99V6.76123H892.991V9.76123ZM904.989 9.76123H910.988V6.76123H904.989V9.76123ZM916.987 9.76123H922.986V6.76123H916.987V9.76123ZM928.985 9.76123H934.984V6.76123H928.985V9.76123ZM940.983 9.76123H946.982V6.76123H940.983V9.76123ZM952.981 9.76123H958.98V6.76123H952.981V9.76123ZM964.98 9.76123H970.979V6.76123H964.98V9.76123ZM976.978 9.76123H982.977V6.76123H976.978V9.76123ZM988.976 9.76123H994.975V6.76123H988.976V9.76123ZM1000.97 9.76123H1006.97V6.76123H1000.97V9.76123ZM1012.97 9.76123H1018.97V6.76123H1012.97V9.76123ZM1024.97 9.76123H1030.97V6.76123H1024.97V9.76123ZM1036.97 9.76123H1042.97V6.76123H1036.97V9.76123ZM1048.97 9.76123H1054.97V6.76123H1048.97V9.76123ZM1060.97 9.76123H1066.96V6.76123H1060.97V9.76123ZM1072.96 9.76123H1078.96V6.76123H1072.96V9.76123ZM1084.96 9.76123H1090.96V6.76123H1084.96V9.76123ZM1096.96 9.76123H1102.96V6.76123H1096.96V9.76123ZM1108.96 9.76123H1114.96V6.76123H1108.96V9.76123ZM1120.96 9.76123H1126.96V6.76123H1120.96V9.76123ZM1132.95 9.76123H1138.95V6.76123H1132.95V9.76123ZM1144.95 9.76123H1150.95V6.76123H1144.95V9.76123ZM1156.95 9.76123H1162.95V6.76123H1156.95V9.76123ZM1168.95 9.76123H1174.95V6.76123H1168.95V9.76123ZM1180.95 9.76123H1186.95V6.76123H1180.95V9.76123ZM1192.95 9.76123H1198.95V6.76123H1192.95V9.76123ZM1204.94 9.76123H1210.94V6.76123H1204.94V9.76123ZM1216.94 9.76123H1222.94V6.76123H1216.94V9.76123ZM1228.94 9.76123H1234.94V6.76123H1228.94V9.76123ZM1240.94 9.76123H1246.94V6.76123H1240.94V9.76123ZM1252.94 9.76123H1258.94V6.76123H1252.94V9.76123ZM1264.94 9.76123H1270.94V6.76123H1264.94V9.76123ZM1276.93 9.76123H1282.93V6.76123H1276.93V9.76123ZM1288.93 9.76123H1294.93V6.76123H1288.93V9.76123ZM1300.93 9.76123H1306.93V6.76123H1300.93V9.76123ZM1312.93 9.76123H1318.93V6.76123H1312.93V9.76123ZM1324.93 9.76123H1330.93V6.76123H1324.93V9.76123ZM1336.93 9.76123H1342.93V6.76123H1336.93V9.76123ZM1348.92 9.76123H1354.92V6.76123H1348.92V9.76123ZM1360.92 9.76123H1366.92V6.76123H1360.92V9.76123ZM1372.92 9.76123H1378.92V6.76123H1372.92V9.76123ZM1384.92 9.76123H1390.92V6.76123H1384.92V9.76123ZM1396.92 9.76123H1402.92V6.76123H1396.92V9.76123ZM1408.92 9.76123H1414.91V6.76123H1408.92V9.76123ZM1420.91 9.76123H1426.91V6.76123H1420.91V9.76123ZM1432.91 9.76123H1438.91V6.76123H1432.91V9.76123ZM1444.91 9.76123H1450.91V6.76123H1444.91V9.76123ZM1456.91 9.76123H1462.91V6.76123H1456.91V9.76123ZM1468.91 9.76123H1474.91V6.76123H1468.91V9.76123ZM1480.91 9.76123H1486.9V6.76123H1480.91V9.76123ZM1492.9 9.76123H1498.9V6.76123H1492.9V9.76123ZM1504.9 9.76123H1510.9V6.76123H1504.9V9.76123ZM1516.9 9.76123H1522.9V6.76123H1516.9V9.76123ZM1528.9 9.76123H1534.9V6.76123H1528.9V9.76123ZM1540.9 9.76123H1546.9V6.76123H1540.9V9.76123ZM1552.9 9.76123H1558.89V6.76123H1552.9V9.76123ZM1564.89 9.76123H1570.89V6.76123H1564.89V9.76123ZM1576.89 9.76123H1582.89V6.76123H1576.89V9.76123ZM1588.89 9.76123H1594.89V6.76123H1588.89V9.76123ZM1600.89 9.76123H1606.89V6.76123H1600.89V9.76123ZM1612.89 9.76123H1618.89V6.76123H1612.89V9.76123ZM1624.88 9.76123H1630.88V6.76123H1624.88V9.76123ZM1636.88 9.76123H1642.88V6.76123H1636.88V9.76123ZM1648.88 9.76123H1654.88V6.76123H1648.88V9.76123ZM1660.88 9.76123H1663.87V6.76123H1660.88V9.76123Z" fill="#161616"/>
</svg>
