<svg width="2" height="2" viewBox="0 0 2 2" fill="none" xmlns="http://www.w3.org/2000/svg">
<path d="M0.817155 1.42508H0.575623V1.15357C0.575623 1.15357 0.685178 1.02498 0.817155 1.15357V1.42508Z" fill="#212121"/>
<path d="M0.575623 0.102081H0.817155V0.53803C0.71235 0.414873 0.658558 0.787098 0.575623 0.53803L0.575623 0.102081Z" fill="#212121"/>
<path d="M1.30588 1.26921L1.08543 0.643491V1.09355L1.21013 1.42508H1.39272L1.67552 0.679119V0.643491H1.53078L1.30588 1.26921Z" fill="#212121"/>
<path d="M0.890736 0.871558L0.690734 0.659985C0.664036 0.711987 0.608306 0.720831 0.575623 0.676882V1.05605C0.617544 1.02017 0.619758 1.00346 0.690734 1.00346L0.708335 0.885089L0.890736 1.08055H0.984582V0.658908L0.890736 0.673947V0.871558Z" fill="#5B5B5B"/>
<path d="M0.817155 1.42508H0.575623V1.15357C0.575623 1.15357 0.685178 1.02498 0.817155 1.15357V1.42508Z" stroke="black" stroke-width="0.02"/>
<path d="M0.575623 0.102081H0.817155V0.53803C0.71235 0.414873 0.658558 0.787098 0.575623 0.53803L0.575623 0.102081Z" stroke="black" stroke-width="0.02"/>
<path d="M1.30588 1.26921L1.08543 0.643491V1.09355L1.21013 1.42508H1.39272L1.67552 0.679119V0.643491H1.53078L1.30588 1.26921Z" stroke="black" stroke-width="0.02"/>
<path d="M0.890736 0.871558L0.690734 0.659985C0.664036 0.711987 0.608306 0.720831 0.575623 0.676882V1.05605C0.617544 1.02017 0.619758 1.00346 0.690734 1.00346L0.708335 0.885089L0.890736 1.08055H0.984582V0.658908L0.890736 0.673947V0.871558Z" stroke="black" stroke-width="0.02"/>
</svg>
