<svg width="1672" height="17" viewBox="0 0 1672 17" fill="none" xmlns="http://www.w3.org/2000/svg">
<path d="M0.125488 8.60986C0.125488 13.0281 3.70721 16.6099 8.12549 16.6099C12.5438 16.6099 16.1255 13.0281 16.1255 8.60986C16.1255 4.19159 12.5438 0.609863 8.12549 0.609863C3.70721 0.609863 0.125488 4.19159 0.125488 8.60986ZM1655.87 8.60986C1655.87 13.0281 1659.46 16.6099 1663.87 16.6099C1668.29 16.6099 1671.87 13.0281 1671.87 8.60986C1671.87 4.19159 1668.29 0.609863 1663.87 0.609863C1659.46 0.609863 1655.87 4.19159 1655.87 8.60986ZM8.12549 10.1099H11.125V7.10986H8.12549V10.1099ZM17.1241 10.1099H23.1232V7.10986H17.1241V10.1099ZM29.1223 10.1099H35.1214V7.10986H29.1223V10.1099ZM41.1205 10.1099H47.1196V7.10986H41.1205V10.1099ZM53.1187 10.1099H59.1178V7.10986H53.1187V10.1099ZM65.1169 10.1099H71.1159V7.10986H65.1169V10.1099ZM77.115 10.1099H83.1141V7.10986H77.115V10.1099ZM89.1132 10.1099H95.1123V7.10986H89.1132V10.1099ZM101.111 10.1099H107.11V7.10986H101.111V10.1099ZM113.11 10.1099H119.109V7.10986H113.11V10.1099ZM125.108 10.1099H131.107V7.10986H125.108V10.1099ZM137.106 10.1099H143.105V7.10986H137.106V10.1099ZM149.104 10.1099H155.103V7.10986H149.104V10.1099ZM161.102 10.1099H167.101V7.10986H161.102V10.1099ZM173.1 10.1099H179.1V7.10986H173.1V10.1099ZM185.099 10.1099H191.098V7.10986H185.099V10.1099ZM197.097 10.1099H203.096V7.10986H197.097V10.1099ZM209.095 10.1099H215.094V7.10986H209.095V10.1099ZM221.093 10.1099H227.092V7.10986H221.093V10.1099ZM233.091 10.1099H239.09V7.10986H233.091V10.1099ZM245.089 10.1099H251.089V7.10986H245.089V10.1099ZM257.088 10.1099H263.087V7.10986H257.088V10.1099ZM269.086 10.1099H275.085V7.10986H269.086V10.1099ZM281.084 10.1099H287.083V7.10986H281.084V10.1099ZM293.082 10.1099H299.081V7.10986H293.082V10.1099ZM305.08 10.1099H311.079V7.10986H305.08V10.1099ZM317.078 10.1099H323.078V7.10986H317.078V10.1099ZM329.077 10.1099H335.076V7.10986H329.077V10.1099ZM341.075 10.1099H347.074V7.10986H341.075V10.1099ZM353.073 10.1099H359.072V7.10986H353.073V10.1099ZM365.071 10.1099H371.07V7.10986H365.071V10.1099ZM377.069 10.1099H383.068V7.10986H377.069V10.1099ZM389.068 10.1099H395.067V7.10986H389.068V10.1099ZM401.066 10.1099H407.065V7.10986H401.066V10.1099ZM413.064 10.1099H419.063V7.10986H413.064V10.1099ZM425.062 10.1099H431.061V7.10986H425.062V10.1099ZM437.06 10.1099H443.059V7.10986H437.06V10.1099ZM449.058 10.1099H455.057V7.10986H449.058V10.1099ZM461.057 10.1099H467.056V7.10986H461.057V10.1099ZM473.055 10.1099H479.054V7.10986H473.055V10.1099ZM485.053 10.1099H491.052V7.10986H485.053V10.1099ZM497.051 10.1099H503.05V7.10986H497.051V10.1099ZM509.049 10.1099H515.048V7.10986H509.049V10.1099ZM521.047 10.1099H527.046V7.10986H521.047V10.1099ZM533.046 10.1099H539.045V7.10986H533.046V10.1099ZM545.044 10.1099H551.043V7.10986H545.044V10.1099ZM557.042 10.1099H563.041V7.10986H557.042V10.1099ZM569.04 10.1099H575.039V7.10986H569.04V10.1099ZM581.038 10.1099H587.037V7.10986H581.038V10.1099ZM593.036 10.1099H599.035V7.10986H593.036V10.1099ZM605.035 10.1099H611.034V7.10986H605.035V10.1099ZM617.033 10.1099H623.032V7.10986H617.033V10.1099ZM629.031 10.1099H635.03V7.10986H629.031V10.1099ZM641.029 10.1099H647.028V7.10986H641.029V10.1099ZM653.027 10.1099H659.026V7.10986H653.027V10.1099ZM665.025 10.1099H671.024V7.10986H665.025V10.1099ZM677.024 10.1099H683.023V7.10986H677.024V10.1099ZM689.022 10.1099H695.021V7.10986H689.022V10.1099ZM701.02 10.1099H707.019V7.10986H701.02V10.1099ZM713.018 10.1099H719.017V7.10986H713.018V10.1099ZM725.016 10.1099H731.015V7.10986H725.016V10.1099ZM737.014 10.1099H743.013V7.10986H737.014V10.1099ZM749.013 10.1099H755.012V7.10986H749.013V10.1099ZM761.011 10.1099H767.01V7.10986H761.011V10.1099ZM773.009 10.1099H779.008V7.10986H773.009V10.1099ZM785.007 10.1099H791.006V7.10986H785.007V10.1099ZM797.005 10.1099H803.004V7.10986H797.005V10.1099ZM809.003 10.1099H815.002V7.10986H809.003V10.1099ZM821.002 10.1099H827.001V7.10986H821.002V10.1099ZM833 10.1099H838.999V7.10986H833V10.1099ZM844.998 10.1099H850.997V7.10986H844.998V10.1099ZM856.996 10.1099H862.995V7.10986H856.996V10.1099ZM868.994 10.1099H874.993V7.10986H868.994V10.1099ZM880.992 10.1099H886.992V7.10986H880.992V10.1099ZM892.991 10.1099H898.99V7.10986H892.991V10.1099ZM904.989 10.1099H910.988V7.10986H904.989V10.1099ZM916.987 10.1099H922.986V7.10986H916.987V10.1099ZM928.985 10.1099H934.984V7.10986H928.985V10.1099ZM940.983 10.1099H946.982V7.10986H940.983V10.1099ZM952.981 10.1099H958.98V7.10986H952.981V10.1099ZM964.98 10.1099H970.979V7.10986H964.98V10.1099ZM976.978 10.1099H982.977V7.10986H976.978V10.1099ZM988.976 10.1099H994.975V7.10986H988.976V10.1099ZM1000.97 10.1099H1006.97V7.10986H1000.97V10.1099ZM1012.97 10.1099H1018.97V7.10986H1012.97V10.1099ZM1024.97 10.1099H1030.97V7.10986H1024.97V10.1099ZM1036.97 10.1099H1042.97V7.10986H1036.97V10.1099ZM1048.97 10.1099H1054.97V7.10986H1048.97V10.1099ZM1060.97 10.1099H1066.96V7.10986H1060.97V10.1099ZM1072.96 10.1099H1078.96V7.10986H1072.96V10.1099ZM1084.96 10.1099H1090.96V7.10986H1084.96V10.1099ZM1096.96 10.1099H1102.96V7.10986H1096.96V10.1099ZM1108.96 10.1099H1114.96V7.10986H1108.96V10.1099ZM1120.96 10.1099H1126.96V7.10986H1120.96V10.1099ZM1132.95 10.1099H1138.95V7.10986H1132.95V10.1099ZM1144.95 10.1099H1150.95V7.10986H1144.95V10.1099ZM1156.95 10.1099H1162.95V7.10986H1156.95V10.1099ZM1168.95 10.1099H1174.95V7.10986H1168.95V10.1099ZM1180.95 10.1099H1186.95V7.10986H1180.95V10.1099ZM1192.95 10.1099H1198.95V7.10986H1192.95V10.1099ZM1204.94 10.1099H1210.94V7.10986H1204.94V10.1099ZM1216.94 10.1099H1222.94V7.10986H1216.94V10.1099ZM1228.94 10.1099H1234.94V7.10986H1228.94V10.1099ZM1240.94 10.1099H1246.94V7.10986H1240.94V10.1099ZM1252.94 10.1099H1258.94V7.10986H1252.94V10.1099ZM1264.94 10.1099H1270.94V7.10986H1264.94V10.1099ZM1276.93 10.1099H1282.93V7.10986H1276.93V10.1099ZM1288.93 10.1099H1294.93V7.10986H1288.93V10.1099ZM1300.93 10.1099H1306.93V7.10986H1300.93V10.1099ZM1312.93 10.1099H1318.93V7.10986H1312.93V10.1099ZM1324.93 10.1099H1330.93V7.10986H1324.93V10.1099ZM1336.93 10.1099H1342.93V7.10986H1336.93V10.1099ZM1348.92 10.1099H1354.92V7.10986H1348.92V10.1099ZM1360.92 10.1099H1366.92V7.10986H1360.92V10.1099ZM1372.92 10.1099H1378.92V7.10986H1372.92V10.1099ZM1384.92 10.1099H1390.92V7.10986H1384.92V10.1099ZM1396.92 10.1099H1402.92V7.10986H1396.92V10.1099ZM1408.92 10.1099H1414.91V7.10986H1408.92V10.1099ZM1420.91 10.1099H1426.91V7.10986H1420.91V10.1099ZM1432.91 10.1099H1438.91V7.10986H1432.91V10.1099ZM1444.91 10.1099H1450.91V7.10986H1444.91V10.1099ZM1456.91 10.1099H1462.91V7.10986H1456.91V10.1099ZM1468.91 10.1099H1474.91V7.10986H1468.91V10.1099ZM1480.91 10.1099H1486.9V7.10986H1480.91V10.1099ZM1492.9 10.1099H1498.9V7.10986H1492.9V10.1099ZM1504.9 10.1099H1510.9V7.10986H1504.9V10.1099ZM1516.9 10.1099H1522.9V7.10986H1516.9V10.1099ZM1528.9 10.1099H1534.9V7.10986H1528.9V10.1099ZM1540.9 10.1099H1546.9V7.10986H1540.9V10.1099ZM1552.9 10.1099H1558.89V7.10986H1552.9V10.1099ZM1564.89 10.1099H1570.89V7.10986H1564.89V10.1099ZM1576.89 10.1099H1582.89V7.10986H1576.89V10.1099ZM1588.89 10.1099H1594.89V7.10986H1588.89V10.1099ZM1600.89 10.1099H1606.89V7.10986H1600.89V10.1099ZM1612.89 10.1099H1618.89V7.10986H1612.89V10.1099ZM1624.88 10.1099H1630.88V7.10986H1624.88V10.1099ZM1636.88 10.1099H1642.88V7.10986H1636.88V10.1099ZM1648.88 10.1099H1654.88V7.10986H1648.88V10.1099ZM1660.88 10.1099H1663.87V7.10986H1660.88V10.1099Z" fill="#C6C6C6"/>
</svg>
