<svg width="685" height="199" viewBox="0 0 685 199" fill="none" xmlns="http://www.w3.org/2000/svg">
<path d="M36.9245 197.861H1.00012L1 157.477C1 157.477 17.2948 138.353 36.9245 157.477V197.861Z" fill="#1245CB"/>
<path d="M1.00012 1.08401L36.9245 1.08398V65.9251C21.3362 47.6073 13.3354 102.971 1.00012 65.9251V1.08401Z" fill="#1245CB"/>
<path d="M109.615 174.678L76.8263 81.611V148.551L95.3731 197.861H122.531L164.593 86.9102V81.611H143.065L109.615 174.678Z" fill="#1245CB"/>
<path d="M47.8685 115.533L18.1211 84.0643C14.1503 91.7989 5.86112 93.1143 1.0001 86.5774V142.973C7.23517 137.636 7.56453 135.151 18.1211 135.151L20.739 117.545L47.8685 146.617H61.8267V83.9041L47.8685 86.1409V115.533Z" fill="#2B63F7"/>
<path d="M36.9245 197.861H1.00012L1 157.477C1 157.477 17.2948 138.353 36.9245 157.477V197.861Z" stroke="white"/>
<path d="M1.00012 1.08401L36.9245 1.08398V65.9251C21.3362 47.6073 13.3354 102.971 1.00012 65.9251V1.08401Z" stroke="white"/>
<path d="M109.615 174.678L76.8263 81.611V148.551L95.3731 197.861H122.531L164.593 86.9102V81.611H143.065L109.615 174.678Z" stroke="white"/>
<path d="M47.8685 115.533L18.1211 84.0643C14.1503 91.7989 5.86112 93.1143 1.0001 86.5774V142.973C7.23517 137.636 7.56453 135.151 18.1211 135.151L20.739 117.545L47.8685 146.617H61.8267V83.9041L47.8685 86.1409V115.533Z" stroke="white"/>
<path d="M240.937 105.486V159.745H233.181V105.486H240.937Z" fill="white"/>
<path d="M262.656 159.745H254.899V105.486H262.656L295.272 147.561V105.486H303.029V159.745H295.272L262.656 117.67V159.745Z" fill="white"/>
<path d="M324.71 159.745H316.953V105.486H324.71L357.326 147.561V105.486H365.083V159.745H357.326L324.71 117.67V159.745Z" fill="white"/>
<path d="M425.509 151.988C425.509 153.048 425.308 154.057 424.904 155.015C424.5 155.949 423.945 156.769 423.239 157.475C422.533 158.181 421.7 158.736 420.742 159.14C419.809 159.543 418.812 159.745 417.753 159.745H386.764C385.704 159.745 384.695 159.543 383.737 159.14C382.803 158.736 381.984 158.181 381.277 157.475C380.571 156.769 380.016 155.949 379.612 155.015C379.209 154.057 379.007 153.048 379.007 151.988V113.243C379.007 112.183 379.209 111.187 379.612 110.253C380.016 109.295 380.571 108.475 381.277 107.794C381.984 107.088 382.803 106.533 383.737 106.129C384.695 105.7 385.704 105.486 386.764 105.486H417.753C418.812 105.486 419.809 105.7 420.742 106.129C421.7 106.533 422.533 107.088 423.239 107.794C423.945 108.475 424.5 109.295 424.904 110.253C425.308 111.187 425.509 112.183 425.509 113.243V151.988ZM386.764 113.243V151.988H417.753V113.243H386.764Z" fill="white"/>
<path d="M455.742 159.745L434.817 105.486H443.142L460.017 150.134L476.931 105.486H485.217L464.293 159.745H455.742Z" fill="white"/>
<path d="M502.244 105.486V159.745H494.487V105.486H502.244Z" fill="white"/>
<path d="M521.314 105.486L535.806 125.805L550.374 105.486H559.757L540.536 132.388L560.174 159.745H550.79L535.806 138.897L520.936 159.745H511.552L531.19 132.388L511.968 105.486H521.314Z" fill="white"/>
<path d="M577.238 105.486V159.745H569.482V105.486H577.238Z" fill="white"/>
<path d="M586.547 105.486H629.946V113.243H612.125V159.745H604.368V113.243H586.547V105.486Z" fill="white"/>
<path d="M642.849 105.486L658.627 130.837L674.443 105.486H683.449L662.525 138.215V159.745H654.768V138.215L633.844 105.486H642.849Z" fill="white"/>
<path d="M226.218 167.502H685V171.361H226.218V167.502Z" fill="white"/>
<path d="M237.019 166.998L240.52 160.969H233.518L237.019 166.998Z" fill="white"/>
<path d="M240.899 102.5C240.899 103.253 239.199 103.863 237.101 103.863C235.003 103.863 233.303 103.253 233.303 102.5C233.303 101.748 235.003 101.138 237.101 101.138C239.199 101.138 240.899 101.748 240.899 102.5Z" fill="white"/>
<path d="M233.303 102.418H240.899V104.441H233.303V102.418Z" fill="white"/>
<path d="M661.916 163.769C661.916 165.552 660.47 166.998 658.687 166.998C656.904 166.998 655.458 165.552 655.458 163.769C655.458 161.986 656.904 160.54 658.687 160.54C660.47 160.54 661.916 161.986 661.916 163.769Z" fill="white"/>
</svg>
