<svg width="274" height="81" viewBox="0 0 274 81" fill="none" xmlns="http://www.w3.org/2000/svg">
<path d="M14.8382 79.6651H0.500047L0.5 63.547C0.5 63.547 7.00362 55.914 14.8382 63.547V79.6651Z" fill="#212121"/>
<path d="M0.500047 1.12733L14.8382 1.12732V27.0067C8.61661 19.6957 5.42332 41.7923 0.500047 27.0067V1.12733Z" fill="#212121"/>
<path d="M43.8504 70.412L30.7639 33.2672V59.9842L38.1663 79.6651H49.0057L65.7936 35.3822V33.2672H57.2014L43.8504 70.412Z" fill="#212121"/>
<path d="M19.2062 46.8061L7.3334 34.2464C5.74855 37.3334 2.44018 37.8584 0.500039 35.2494V57.7582C2.98859 55.6281 3.12005 54.6362 7.3334 54.6362L8.37826 47.6093L19.2062 59.2124H24.7772V34.1825L19.2062 35.0752V46.8061Z" fill="#5B5B5B"/>
<path d="M14.8382 79.6651H0.500047L0.5 63.547C0.5 63.547 7.00362 55.914 14.8382 63.547V79.6651Z" stroke="white"/>
<path d="M0.500047 1.12733L14.8382 1.12732V27.0067C8.61661 19.6957 5.42332 41.7923 0.500047 27.0067V1.12733Z" stroke="white"/>
<path d="M43.8504 70.412L30.7639 33.2672V59.9842L38.1663 79.6651H49.0057L65.7936 35.3822V33.2672H57.2014L43.8504 70.412Z" stroke="white"/>
<path d="M19.2062 46.8061L7.3334 34.2464C5.74855 37.3334 2.44018 37.8584 0.500039 35.2494V57.7582C2.98859 55.6281 3.12005 54.6362 7.3334 54.6362L8.37826 47.6093L19.2062 59.2124H24.7772V34.1825L19.2062 35.0752V46.8061Z" stroke="white"/>
<path d="M96.2652 42.7947V64.4507H93.1694V42.7947H96.2652Z" fill="white"/>
<path d="M104.934 64.4507H101.838V42.7947H104.934L117.951 59.5879V42.7947H121.047V64.4507H117.951L104.934 47.6575V64.4507Z" fill="white"/>
<path d="M129.701 64.4507H126.605V42.7947H129.701L142.718 59.5879V42.7947H145.814V64.4507H142.718L129.701 47.6575V64.4507Z" fill="white"/>
<path d="M169.932 61.3548C169.932 61.7777 169.851 62.1804 169.69 62.563C169.529 62.9355 169.308 63.2627 169.026 63.5446C168.744 63.8265 168.412 64.048 168.029 64.2091C167.657 64.3702 167.259 64.4507 166.836 64.4507H154.468C154.045 64.4507 153.642 64.3702 153.259 64.2091C152.887 64.048 152.56 63.8265 152.278 63.5446C151.996 63.2627 151.774 62.9355 151.613 62.563C151.452 62.1804 151.372 61.7777 151.372 61.3548V45.8906C151.372 45.4677 151.452 45.07 151.613 44.6975C151.774 44.3149 151.996 43.9877 152.278 43.7159C152.56 43.434 152.887 43.2125 153.259 43.0514C153.642 42.8803 154.045 42.7947 154.468 42.7947H166.836C167.259 42.7947 167.657 42.8803 168.029 43.0514C168.412 43.2125 168.744 43.434 169.026 43.7159C169.308 43.9877 169.529 44.3149 169.69 44.6975C169.851 45.07 169.932 45.4677 169.932 45.8906V61.3548ZM154.468 45.8906V61.3548H166.836V45.8906H154.468Z" fill="white"/>
<path d="M181.998 64.4507L173.647 42.7947H176.969L183.705 60.6148L190.455 42.7947H193.763L185.411 64.4507H181.998Z" fill="white"/>
<path d="M200.558 42.7947V64.4507H197.463V42.7947H200.558Z" fill="white"/>
<path d="M208.17 42.7947L213.954 50.9044L219.768 42.7947H223.513L215.841 53.5321L223.679 64.4507H219.934L213.954 56.1296L208.019 64.4507H204.273L212.111 53.5321L204.44 42.7947H208.17Z" fill="white"/>
<path d="M230.49 42.7947V64.4507H227.394V42.7947H230.49Z" fill="white"/>
<path d="M234.205 42.7947H251.527V45.8906H244.414V64.4507H241.318V45.8906H234.205V42.7947Z" fill="white"/>
<path d="M256.677 42.7947L262.974 52.9129L269.287 42.7947H272.881L264.53 55.8578V64.4507H261.434V55.8578L253.083 42.7947H256.677Z" fill="white"/>
<path d="M90.3906 67.5466H273.5V69.087H90.3906V67.5466Z" fill="white"/>
<path d="M94.6983 67.3427L96.0955 64.9365H93.3012L94.6983 67.3427Z" fill="white"/>
<path d="M96.2471 41.6004C96.2471 41.9007 95.5684 42.1441 94.7311 42.1441C93.8939 42.1441 93.2152 41.9007 93.2152 41.6004C93.2152 41.3 93.8939 41.0566 94.7311 41.0566C95.5684 41.0566 96.2471 41.3 96.2471 41.6004Z" fill="white"/>
<path d="M93.2152 41.5674H96.2471V42.3748H93.2152V41.5674Z" fill="white"/>
<path d="M264.284 66.054C264.284 66.7657 263.707 67.3427 262.995 67.3427C262.284 67.3427 261.707 66.7657 261.707 66.054C261.707 65.3423 262.284 64.7653 262.995 64.7653C263.707 64.7653 264.284 65.3423 264.284 66.054Z" fill="white"/>
</svg>
