<svg width="1468" height="278" viewBox="0 0 1468 278" fill="none" xmlns="http://www.w3.org/2000/svg">
<mask id="path-1-outside-1_122_84" maskUnits="userSpaceOnUse" x="29" y="17.4709" width="1426" height="193" fill="black">
<rect fill="white" x="29" y="17.4709" width="1426" height="193"/>
<path d="M191.455 180.145C191.455 183.741 190.77 187.165 189.4 190.419C188.03 193.586 186.147 196.369 183.75 198.766C181.352 201.163 178.527 203.046 175.274 204.416C172.106 205.786 168.725 206.471 165.129 206.471H59.9546C56.3589 206.471 52.9344 205.786 49.6812 204.416C46.5135 203.046 43.7311 201.163 41.334 198.766C38.9368 196.369 37.0534 193.586 35.6836 190.419C34.3138 187.165 33.6289 183.741 33.6289 180.145V48.6453C33.6289 45.0496 34.3138 41.6679 35.6836 38.5002C37.0534 35.247 38.9368 32.4646 41.334 30.1531C43.7311 27.7559 46.5135 25.8725 49.6812 24.5027C52.9344 23.0473 56.3589 22.3196 59.9546 22.3196H165.129C168.725 22.3196 172.106 23.0473 175.274 24.5027C178.527 25.8725 181.352 27.7559 183.75 30.1531C186.147 32.4646 188.03 35.247 189.4 38.5002C190.77 41.6679 191.455 45.0496 191.455 48.6453V180.145ZM59.9546 48.6453V180.145H165.129V48.6453H59.9546ZM294.061 206.471L223.045 22.3196H251.297L308.572 173.853L365.975 22.3196H394.098L323.083 206.471H294.061ZM425.561 22.3196H559.757V48.6453H451.886V101.297H543.962V127.622H451.886V180.145H559.757V206.471H425.561V22.3196ZM744.679 88.0696C744.679 113.753 733.721 128.393 711.804 131.989L746.477 206.471H717.326L683.167 132.887H625.507V206.471H599.182V22.3196H699.99C729.783 22.3196 744.679 37.2589 744.679 67.1375V88.0696ZM625.507 106.562H698.577C705.597 106.562 710.648 105.021 713.73 101.939C716.812 98.8567 718.354 93.8056 718.354 86.7854V68.4216C718.354 61.4014 716.812 56.3503 713.73 53.2683C710.648 50.1863 705.597 48.6453 698.577 48.6453H625.507V106.562ZM843.946 206.471L772.931 22.3196H801.183L858.458 173.853L915.86 22.3196H943.984L872.969 206.471H843.946ZM1001.77 22.3196V206.471H975.446V22.3196H1001.77ZM1049.16 22.3196H1183.35V48.6453H1075.48V101.297H1167.56V127.622H1075.48V180.145H1183.35V206.471H1049.16V22.3196ZM1259.64 206.471L1206.98 22.3196H1233.31L1274.15 168.844L1314.85 22.3196H1341.18L1381.89 168.844L1422.73 22.3196H1449.05L1396.4 206.471H1367.51L1328.08 68.4216L1288.53 206.471H1259.64Z"/>
</mask>
<path d="M191.455 180.145C191.455 183.741 190.77 187.165 189.4 190.419C188.03 193.586 186.147 196.369 183.75 198.766C181.352 201.163 178.527 203.046 175.274 204.416C172.106 205.786 168.725 206.471 165.129 206.471H59.9546C56.3589 206.471 52.9344 205.786 49.6812 204.416C46.5135 203.046 43.7311 201.163 41.334 198.766C38.9368 196.369 37.0534 193.586 35.6836 190.419C34.3138 187.165 33.6289 183.741 33.6289 180.145V48.6453C33.6289 45.0496 34.3138 41.6679 35.6836 38.5002C37.0534 35.247 38.9368 32.4646 41.334 30.1531C43.7311 27.7559 46.5135 25.8725 49.6812 24.5027C52.9344 23.0473 56.3589 22.3196 59.9546 22.3196H165.129C168.725 22.3196 172.106 23.0473 175.274 24.5027C178.527 25.8725 181.352 27.7559 183.75 30.1531C186.147 32.4646 188.03 35.247 189.4 38.5002C190.77 41.6679 191.455 45.0496 191.455 48.6453V180.145ZM59.9546 48.6453V180.145H165.129V48.6453H59.9546ZM294.061 206.471L223.045 22.3196H251.297L308.572 173.853L365.975 22.3196H394.098L323.083 206.471H294.061ZM425.561 22.3196H559.757V48.6453H451.886V101.297H543.962V127.622H451.886V180.145H559.757V206.471H425.561V22.3196ZM744.679 88.0696C744.679 113.753 733.721 128.393 711.804 131.989L746.477 206.471H717.326L683.167 132.887H625.507V206.471H599.182V22.3196H699.99C729.783 22.3196 744.679 37.2589 744.679 67.1375V88.0696ZM625.507 106.562H698.577C705.597 106.562 710.648 105.021 713.73 101.939C716.812 98.8567 718.354 93.8056 718.354 86.7854V68.4216C718.354 61.4014 716.812 56.3503 713.73 53.2683C710.648 50.1863 705.597 48.6453 698.577 48.6453H625.507V106.562ZM843.946 206.471L772.931 22.3196H801.183L858.458 173.853L915.86 22.3196H943.984L872.969 206.471H843.946ZM1001.77 22.3196V206.471H975.446V22.3196H1001.77ZM1049.16 22.3196H1183.35V48.6453H1075.48V101.297H1167.56V127.622H1075.48V180.145H1183.35V206.471H1049.16V22.3196ZM1259.64 206.471L1206.98 22.3196H1233.31L1274.15 168.844L1314.85 22.3196H1341.18L1381.89 168.844L1422.73 22.3196H1449.05L1396.4 206.471H1367.51L1328.08 68.4216L1288.53 206.471H1259.64Z" fill="url(#paint0_linear_122_84)"/>
<path d="M189.4 190.419L193.071 192.006L193.079 191.989L193.086 191.971L189.4 190.419ZM175.274 204.416L173.722 200.73L173.704 200.737L173.686 200.745L175.274 204.416ZM49.6812 204.416L48.0935 208.088L48.1112 208.095L48.1289 208.103L49.6812 204.416ZM41.334 198.766L38.5056 201.594L41.334 198.766ZM35.6836 190.419L31.9971 191.971L32.0045 191.989L32.0122 192.006L35.6836 190.419ZM35.6836 38.5002L39.355 40.0879L39.3627 40.0702L39.3701 40.0525L35.6836 38.5002ZM41.334 30.1531L44.1105 33.0325L44.1367 33.0072L44.1624 32.9815L41.334 30.1531ZM49.6812 24.5027L51.2688 28.1741L51.2918 28.1642L51.3146 28.154L49.6812 24.5027ZM175.274 24.5027L173.604 28.1374L173.662 28.1643L173.722 28.1892L175.274 24.5027ZM183.75 30.1531L180.921 32.9815L180.947 33.0072L180.973 33.0325L183.75 30.1531ZM189.4 38.5002L185.713 40.0525L185.721 40.0702L185.728 40.0879L189.4 38.5002ZM59.9546 48.6453V44.6453H55.9546V48.6453H59.9546ZM59.9546 180.145H55.9546V184.145H59.9546V180.145ZM165.129 180.145V184.145H169.129V180.145H165.129ZM165.129 48.6453H169.129V44.6453H165.129V48.6453ZM187.455 180.145C187.455 183.218 186.872 186.114 185.713 188.866L193.086 191.971C194.667 188.217 195.455 184.264 195.455 180.145H187.455ZM185.728 188.831C184.555 191.544 182.955 193.904 180.921 195.937L186.578 201.594C189.338 198.834 191.505 195.629 193.071 192.006L185.728 188.831ZM180.921 195.937C178.905 197.954 176.518 199.552 173.722 200.73L176.826 208.103C180.536 206.541 183.8 204.372 186.578 201.594L180.921 195.937ZM173.686 200.745C171.041 201.889 168.202 202.471 165.129 202.471V210.471C169.247 210.471 173.172 209.683 176.862 208.088L173.686 200.745ZM165.129 202.471H59.9546V210.471H165.129V202.471ZM59.9546 202.471C56.8818 202.471 53.986 201.889 51.2334 200.73L48.1289 208.103C51.8828 209.683 55.836 210.471 59.9546 210.471V202.471ZM51.2688 200.745C48.5557 199.572 46.1963 197.971 44.1624 195.937L38.5056 201.594C41.2659 204.355 44.4713 206.521 48.0935 208.088L51.2688 200.745ZM44.1624 195.937C42.1285 193.904 40.5283 191.544 39.355 188.831L32.0122 192.006C33.5785 195.629 35.7452 198.834 38.5056 201.594L44.1624 195.937ZM39.3701 188.866C38.2111 186.114 37.6289 183.218 37.6289 180.145H29.6289C29.6289 184.264 30.4165 188.217 31.9971 191.971L39.3701 188.866ZM37.6289 180.145V48.6453H29.6289V180.145H37.6289ZM37.6289 48.6453C37.6289 45.5723 38.2111 42.7333 39.355 40.0879L32.0122 36.9126C30.4165 40.6025 29.6289 44.5268 29.6289 48.6453H37.6289ZM39.3701 40.0525C40.5424 37.2682 42.1266 34.9455 44.1105 33.0325L38.5574 27.2737C35.7471 29.9837 33.5643 33.2257 31.9971 36.948L39.3701 40.0525ZM44.1624 32.9815C46.1963 30.9476 48.5557 29.3474 51.2688 28.1741L48.0935 20.8313C44.4713 22.3976 41.2659 24.5643 38.5056 27.3246L44.1624 32.9815ZM51.3146 28.154C54.0493 26.9306 56.9167 26.3196 59.9546 26.3196V18.3196C55.8011 18.3196 51.8195 19.164 48.0477 20.8514L51.3146 28.154ZM59.9546 26.3196H165.129V18.3196H59.9546V26.3196ZM165.129 26.3196C168.167 26.3196 170.977 26.9303 173.604 28.1374L176.944 20.868C173.236 19.1642 169.282 18.3196 165.129 18.3196V26.3196ZM173.722 28.1892C176.518 29.3667 178.905 30.9653 180.921 32.9815L186.578 27.3246C183.8 24.5466 180.536 22.3783 176.826 20.8161L173.722 28.1892ZM180.973 33.0325C182.957 34.9455 184.541 37.2682 185.713 40.0525L193.086 36.948C191.519 33.2257 189.336 29.9837 186.526 27.2737L180.973 33.0325ZM185.728 40.0879C186.872 42.7333 187.455 45.5723 187.455 48.6453H195.455C195.455 44.5268 194.667 40.6025 193.071 36.9126L185.728 40.0879ZM187.455 48.6453V180.145H195.455V48.6453H187.455ZM55.9546 48.6453V180.145H63.9546V48.6453H55.9546ZM59.9546 184.145H165.129V176.145H59.9546V184.145ZM169.129 180.145V48.6453H161.129V180.145H169.129ZM165.129 44.6453H59.9546V52.6453H165.129V44.6453ZM294.061 206.471L290.328 207.91L291.316 210.471H294.061V206.471ZM223.045 22.3196V18.3196H217.216L219.313 23.7588L223.045 22.3196ZM251.297 22.3196L255.039 20.9054L254.062 18.3196H251.297V22.3196ZM308.572 173.853L304.83 175.267L308.568 185.155L312.312 175.27L308.572 173.853ZM365.975 22.3196V18.3196H363.212L362.234 20.9026L365.975 22.3196ZM394.098 22.3196L397.83 23.7588L399.928 18.3196H394.098V22.3196ZM323.083 206.471V210.471H325.828L326.815 207.91L323.083 206.471ZM297.793 205.032L226.778 20.8804L219.313 23.7588L290.328 207.91L297.793 205.032ZM223.045 26.3196H251.297V18.3196H223.045V26.3196ZM247.556 23.7338L304.83 175.267L312.313 172.439L255.039 20.9054L247.556 23.7338ZM312.312 175.27L369.715 23.7366L362.234 20.9026L304.831 172.436L312.312 175.27ZM365.975 26.3196H394.098V18.3196H365.975V26.3196ZM390.366 20.8804L319.351 205.032L326.815 207.91L397.83 23.7588L390.366 20.8804ZM323.083 202.471H294.061V210.471H323.083V202.471ZM425.561 22.3196V18.3196H421.561V22.3196H425.561ZM559.757 22.3196H563.757V18.3196H559.757V22.3196ZM559.757 48.6453V52.6453H563.757V48.6453H559.757ZM451.886 48.6453V44.6453H447.886V48.6453H451.886ZM451.886 101.297H447.886V105.297H451.886V101.297ZM543.962 101.297H547.962V97.2966H543.962V101.297ZM543.962 127.622V131.622H547.962V127.622H543.962ZM451.886 127.622V123.622H447.886V127.622H451.886ZM451.886 180.145H447.886V184.145H451.886V180.145ZM559.757 180.145H563.757V176.145H559.757V180.145ZM559.757 206.471V210.471H563.757V206.471H559.757ZM425.561 206.471H421.561V210.471H425.561V206.471ZM425.561 26.3196H559.757V18.3196H425.561V26.3196ZM555.757 22.3196V48.6453H563.757V22.3196H555.757ZM559.757 44.6453H451.886V52.6453H559.757V44.6453ZM447.886 48.6453V101.297H455.886V48.6453H447.886ZM451.886 105.297H543.962V97.2966H451.886V105.297ZM539.962 101.297V127.622H547.962V101.297H539.962ZM543.962 123.622H451.886V131.622H543.962V123.622ZM447.886 127.622V180.145H455.886V127.622H447.886ZM451.886 184.145H559.757V176.145H451.886V184.145ZM555.757 180.145V206.471H563.757V180.145H555.757ZM559.757 202.471H425.561V210.471H559.757V202.471ZM429.561 206.471V22.3196H421.561V206.471H429.561ZM711.804 131.989L711.157 128.041L705.952 128.895L708.178 133.677L711.804 131.989ZM746.477 206.471V210.471H752.751L750.103 204.783L746.477 206.471ZM717.326 206.471L713.698 208.155L714.773 210.471H717.326V206.471ZM683.167 132.887L686.795 131.203L685.72 128.887H683.167V132.887ZM625.507 132.887V128.887H621.507V132.887H625.507ZM625.507 206.471V210.471H629.507V206.471H625.507ZM599.182 206.471H595.182V210.471H599.182V206.471ZM599.182 22.3196V18.3196H595.182V22.3196H599.182ZM625.507 106.562H621.507V110.562H625.507V106.562ZM625.507 48.6453V44.6453H621.507V48.6453H625.507ZM740.679 88.0696C740.679 100.388 738.047 109.517 733.258 115.915C728.526 122.237 721.327 126.373 711.157 128.041L712.452 135.936C724.198 134.009 733.436 129.027 739.663 120.709C745.832 112.467 748.679 101.435 748.679 88.0696H740.679ZM708.178 133.677L742.851 208.159L750.103 204.783L715.431 130.3L708.178 133.677ZM746.477 202.471H717.326V210.471H746.477V202.471ZM720.954 204.787L686.795 131.203L679.539 134.572L713.698 208.155L720.954 204.787ZM683.167 128.887H625.507V136.887H683.167V128.887ZM621.507 132.887V206.471H629.507V132.887H621.507ZM625.507 202.471H599.182V210.471H625.507V202.471ZM603.182 206.471V22.3196H595.182V206.471H603.182ZM599.182 26.3196H699.99V18.3196H599.182V26.3196ZM699.99 26.3196C714.267 26.3196 724.24 29.896 730.674 36.3484C737.11 42.8029 740.679 52.8119 740.679 67.1375H748.679C748.679 51.5845 744.8 39.1844 736.339 30.6997C727.877 22.2128 715.506 18.3196 699.99 18.3196V26.3196ZM740.679 67.1375V88.0696H748.679V67.1375H740.679ZM625.507 110.562H698.577V102.562H625.507V110.562ZM698.577 110.562C706.037 110.562 712.379 108.947 716.559 104.767L710.902 99.1103C708.918 101.094 705.158 102.562 698.577 102.562V110.562ZM716.559 104.767C720.739 100.587 722.354 94.2448 722.354 86.7854H714.354C714.354 93.3664 712.886 97.1261 710.902 99.1103L716.559 104.767ZM722.354 86.7854V68.4216H714.354V86.7854H722.354ZM722.354 68.4216C722.354 60.9622 720.739 54.6198 716.559 50.4399L710.902 56.0967C712.886 58.0809 714.354 61.8407 714.354 68.4216H722.354ZM716.559 50.4399C712.379 46.26 706.037 44.6453 698.577 44.6453V52.6453C705.158 52.6453 708.918 54.1126 710.902 56.0967L716.559 50.4399ZM698.577 44.6453H625.507V52.6453H698.577V44.6453ZM621.507 48.6453V106.562H629.507V48.6453H621.507ZM843.946 206.471L840.214 207.91L841.202 210.471H843.946V206.471ZM772.931 22.3196V18.3196H767.101L769.199 23.7588L772.931 22.3196ZM801.183 22.3196L804.925 20.9054L803.947 18.3196H801.183V22.3196ZM858.458 173.853L854.716 175.267L858.453 185.155L862.198 175.27L858.458 173.853ZM915.86 22.3196V18.3196H913.098L912.12 20.9026L915.86 22.3196ZM943.984 22.3196L947.716 23.7588L949.814 18.3196H943.984V22.3196ZM872.969 206.471V210.471H875.713L876.701 207.91L872.969 206.471ZM847.678 205.032L776.663 20.8804L769.199 23.7588L840.214 207.91L847.678 205.032ZM772.931 26.3196H801.183V18.3196H772.931V26.3196ZM797.441 23.7338L854.716 175.267L862.199 172.439L804.925 20.9054L797.441 23.7338ZM862.198 175.27L919.601 23.7366L912.12 20.9026L854.717 172.436L862.198 175.27ZM915.86 26.3196H943.984V18.3196H915.86V26.3196ZM940.252 20.8804L869.237 205.032L876.701 207.91L947.716 23.7588L940.252 20.8804ZM872.969 202.471H843.946V210.471H872.969V202.471ZM1001.77 22.3196H1005.77V18.3196H1001.77V22.3196ZM1001.77 206.471V210.471H1005.77V206.471H1001.77ZM975.446 206.471H971.446V210.471H975.446V206.471ZM975.446 22.3196V18.3196H971.446V22.3196H975.446ZM997.772 22.3196V206.471H1005.77V22.3196H997.772ZM1001.77 202.471H975.446V210.471H1001.77V202.471ZM979.446 206.471V22.3196H971.446V206.471H979.446ZM975.446 26.3196H1001.77V18.3196H975.446V26.3196ZM1049.16 22.3196V18.3196H1045.16V22.3196H1049.16ZM1183.35 22.3196H1187.35V18.3196H1183.35V22.3196ZM1183.35 48.6453V52.6453H1187.35V48.6453H1183.35ZM1075.48 48.6453V44.6453H1071.48V48.6453H1075.48ZM1075.48 101.297H1071.48V105.297H1075.48V101.297ZM1167.56 101.297H1171.56V97.2966H1167.56V101.297ZM1167.56 127.622V131.622H1171.56V127.622H1167.56ZM1075.48 127.622V123.622H1071.48V127.622H1075.48ZM1075.48 180.145H1071.48V184.145H1075.48V180.145ZM1183.35 180.145H1187.35V176.145H1183.35V180.145ZM1183.35 206.471V210.471H1187.35V206.471H1183.35ZM1049.16 206.471H1045.16V210.471H1049.16V206.471ZM1049.16 26.3196H1183.35V18.3196H1049.16V26.3196ZM1179.35 22.3196V48.6453H1187.35V22.3196H1179.35ZM1183.35 44.6453H1075.48V52.6453H1183.35V44.6453ZM1071.48 48.6453V101.297H1079.48V48.6453H1071.48ZM1075.48 105.297H1167.56V97.2966H1075.48V105.297ZM1163.56 101.297V127.622H1171.56V101.297H1163.56ZM1167.56 123.622H1075.48V131.622H1167.56V123.622ZM1071.48 127.622V180.145H1079.48V127.622H1071.48ZM1075.48 184.145H1183.35V176.145H1075.48V184.145ZM1179.35 180.145V206.471H1187.35V180.145H1179.35ZM1183.35 202.471H1049.16V210.471H1183.35V202.471ZM1053.16 206.471V22.3196H1045.16V206.471H1053.16ZM1259.64 206.471L1255.79 207.571L1256.62 210.471H1259.64V206.471ZM1206.98 22.3196V18.3196H1201.68L1203.14 23.4192L1206.98 22.3196ZM1233.31 22.3196L1237.16 21.2457L1236.35 18.3196H1233.31V22.3196ZM1274.15 168.844L1270.29 169.918L1274.15 183.765L1278 169.915L1274.15 168.844ZM1314.85 22.3196V18.3196H1311.81L1311 21.2488L1314.85 22.3196ZM1341.18 22.3196L1345.03 21.2488L1344.22 18.3196H1341.18V22.3196ZM1381.89 168.844L1378.04 169.915L1381.88 183.765L1385.74 169.918L1381.89 168.844ZM1422.73 22.3196V18.3196H1419.69L1418.87 21.2457L1422.73 22.3196ZM1449.05 22.3196L1452.9 23.4192L1454.36 18.3196H1449.05V22.3196ZM1396.4 206.471V210.471H1399.42L1400.25 207.571L1396.4 206.471ZM1367.51 206.471L1363.66 207.569L1364.49 210.471H1367.51V206.471ZM1328.08 68.4216L1331.93 67.3232L1328.09 53.877L1324.24 67.3199L1328.08 68.4216ZM1288.53 206.471V210.471H1291.54L1292.37 207.573L1288.53 206.471ZM1263.48 205.371L1210.83 21.22L1203.14 23.4192L1255.79 207.571L1263.48 205.371ZM1206.98 26.3196H1233.31V18.3196H1206.98V26.3196ZM1229.46 23.3935L1270.29 169.918L1278 167.771L1237.16 21.2457L1229.46 23.3935ZM1278 169.915L1318.71 23.3903L1311 21.2488L1270.29 167.774L1278 169.915ZM1314.85 26.3196H1341.18V18.3196H1314.85V26.3196ZM1337.33 23.3903L1378.04 169.915L1385.74 167.774L1345.03 21.2488L1337.33 23.3903ZM1385.74 169.918L1426.58 23.3935L1418.87 21.2457L1378.04 167.771L1385.74 169.918ZM1422.73 26.3196H1449.05V18.3196H1422.73V26.3196ZM1445.21 21.22L1392.55 205.371L1400.25 207.571L1452.9 23.4192L1445.21 21.22ZM1396.4 202.471H1367.51V210.471H1396.4V202.471ZM1371.35 205.373L1331.93 67.3232L1324.24 69.52L1363.66 207.569L1371.35 205.373ZM1324.24 67.3199L1284.68 205.369L1292.37 207.573L1331.93 69.5233L1324.24 67.3199ZM1288.53 202.471H1259.64V210.471H1288.53V202.471Z" fill="url(#paint1_linear_122_84)" mask="url(#path-1-outside-1_122_84)"/>
<defs>
<linearGradient id="paint0_linear_122_84" x1="734" y1="10.4709" x2="734" y2="205.399" gradientUnits="userSpaceOnUse">
<stop stop-color="white"/>
<stop offset="1" stop-color="#595959" stop-opacity="0"/>
</linearGradient>
<linearGradient id="paint1_linear_122_84" x1="700.458" y1="10.471" x2="702.626" y2="206.471" gradientUnits="userSpaceOnUse">
<stop/>
<stop offset="1" stop-color="#595959" stop-opacity="0"/>
</linearGradient>
</defs>
</svg>
