<svg width="1728" height="1148" viewBox="0 0 1728 1148" fill="none" xmlns="http://www.w3.org/2000/svg">
<path d="M1759.09 1034.46C1726.95 1034.46 1650.3 1018.14 1600.84 952.861C1539.03 871.264 1650.3 804.503 1662.66 643.782C1675.02 483.061 1598.37 606.693 1662.66 361.902C1665.13 321.516 1645.85 216.017 1548.92 117.112C1506.88 98.1551 1405.01 106.232 1333.8 290.196C1227.48 441.026 1321.44 418.773 1459.9 534.986C1563.75 651.2 1495.76 746.935 1373.36 977.587C1247.69 1214.4 1166.92 1052.84 1088.38 936.162C999.74 804.465 1111.26 693.235 1210.17 438.554C1309.07 183.873 1158.24 203.654 967.85 42.9331C777.458 -117.788 920.87 248.161 804.657 240.743C688.443 233.326 720.587 567.131 718.115 722.906C715.642 878.682 498.051 1071.55 347.22 1076.49C196.39 1081.44 198.863 933.08 285.405 769.886C362.056 549.822 495.578 458.335 285.405 117.112C117.266 -155.866 73.5826 354.484 72.7584 643.782L112.529 840.257C139.571 908.572 64.7686 1126.47 -44.0271 1146.25" stroke="white" stroke-width="3" stroke-linecap="round" stroke-linejoin="round"/>
<circle cx="103.978" cy="800.262" r="35" fill="white"/>
<circle cx="367.089" cy="579.17" r="40" fill="white"/>
<circle cx="234.793" cy="1001.76" r="27.5" fill="white"/>
<circle cx="696.5" cy="799.262" r="36" fill="white"/>
<circle cx="1107.49" cy="657.17" r="38" fill="white"/>
<circle cx="1464.15" cy="802.663" r="28.5" fill="white"/>
<circle cx="1513.69" cy="119.118" r="46" fill="white"/>
<circle cx="1618.16" cy="972.179" r="16.5" fill="white"/>
<path d="M1307.54 1085.16C1307.54 1106.97 1289.86 1124.66 1268.04 1124.66C1246.23 1124.66 1228.54 1106.97 1228.54 1085.16C1228.54 1063.34 1246.23 1045.66 1268.04 1045.66C1289.86 1045.66 1307.54 1063.34 1307.54 1085.16Z" fill="white"/>
<circle cx="715.5" cy="539.17" r="17" fill="white"/>
<path d="M88.1509 643.477C88.1509 651.761 81.4352 658.477 73.1509 658.477C64.8666 658.477 58.1509 651.761 58.1509 643.477C58.1509 635.193 64.8666 628.477 73.1509 628.477C81.4352 628.477 88.1509 635.193 88.1509 643.477Z" fill="white"/>
<path d="M412.089 349.418C412.089 363.225 400.896 374.418 387.089 374.418C373.282 374.418 362.089 363.225 362.089 349.418C362.089 335.61 373.282 324.418 387.089 324.418C400.896 324.418 412.089 335.61 412.089 349.418Z" fill="white"/>
</svg>
