<svg width="1672" height="17" viewBox="0 0 1672 17" fill="none" xmlns="http://www.w3.org/2000/svg">
<path d="M0.125488 8.09521C0.125488 12.5135 3.70721 16.0952 8.12549 16.0952C12.5438 16.0952 16.1255 12.5135 16.1255 8.09521C16.1255 3.67694 12.5438 0.0952148 8.12549 0.0952148C3.70721 0.0952148 0.125488 3.67694 0.125488 8.09521ZM1655.87 8.09521C1655.87 12.5135 1659.46 16.0952 1663.87 16.0952C1668.29 16.0952 1671.87 12.5135 1671.87 8.09521C1671.87 3.67694 1668.29 0.0952148 1663.87 0.0952148C1659.46 0.0952148 1655.87 3.67694 1655.87 8.09521ZM8.12549 9.59521H11.125V6.59521H8.12549V9.59521ZM17.1241 9.59521H23.1232V6.59521H17.1241V9.59521ZM29.1223 9.59521H35.1214V6.59521H29.1223V9.59521ZM41.1205 9.59521H47.1196V6.59521H41.1205V9.59521ZM53.1187 9.59521H59.1178V6.59521H53.1187V9.59521ZM65.1169 9.59521H71.1159V6.59521H65.1169V9.59521ZM77.115 9.59521H83.1141V6.59521H77.115V9.59521ZM89.1132 9.59521H95.1123V6.59521H89.1132V9.59521ZM101.111 9.59521H107.11V6.59521H101.111V9.59521ZM113.11 9.59521H119.109V6.59521H113.11V9.59521ZM125.108 9.59521H131.107V6.59521H125.108V9.59521ZM137.106 9.59521H143.105V6.59521H137.106V9.59521ZM149.104 9.59521H155.103V6.59521H149.104V9.59521ZM161.102 9.59521H167.101V6.59521H161.102V9.59521ZM173.1 9.59521H179.1V6.59521H173.1V9.59521ZM185.099 9.59521H191.098V6.59521H185.099V9.59521ZM197.097 9.59521H203.096V6.59521H197.097V9.59521ZM209.095 9.59521H215.094V6.59521H209.095V9.59521ZM221.093 9.59521H227.092V6.59521H221.093V9.59521ZM233.091 9.59521H239.09V6.59521H233.091V9.59521ZM245.089 9.59521H251.089V6.59521H245.089V9.59521ZM257.088 9.59521H263.087V6.59521H257.088V9.59521ZM269.086 9.59521H275.085V6.59521H269.086V9.59521ZM281.084 9.59521H287.083V6.59521H281.084V9.59521ZM293.082 9.59521H299.081V6.59521H293.082V9.59521ZM305.08 9.59521H311.079V6.59521H305.08V9.59521ZM317.078 9.59521H323.078V6.59521H317.078V9.59521ZM329.077 9.59521H335.076V6.59521H329.077V9.59521ZM341.075 9.59521H347.074V6.59521H341.075V9.59521ZM353.073 9.59521H359.072V6.59521H353.073V9.59521ZM365.071 9.59521H371.07V6.59521H365.071V9.59521ZM377.069 9.59521H383.068V6.59521H377.069V9.59521ZM389.068 9.59521H395.067V6.59521H389.068V9.59521ZM401.066 9.59521H407.065V6.59521H401.066V9.59521ZM413.064 9.59521H419.063V6.59521H413.064V9.59521ZM425.062 9.59521H431.061V6.59521H425.062V9.59521ZM437.06 9.59521H443.059V6.59521H437.06V9.59521ZM449.058 9.59521H455.057V6.59521H449.058V9.59521ZM461.057 9.59521H467.056V6.59521H461.057V9.59521ZM473.055 9.59521H479.054V6.59521H473.055V9.59521ZM485.053 9.59521H491.052V6.59521H485.053V9.59521ZM497.051 9.59521H503.05V6.59521H497.051V9.59521ZM509.049 9.59521H515.048V6.59521H509.049V9.59521ZM521.047 9.59521H527.046V6.59521H521.047V9.59521ZM533.046 9.59521H539.045V6.59521H533.046V9.59521ZM545.044 9.59521H551.043V6.59521H545.044V9.59521ZM557.042 9.59521H563.041V6.59521H557.042V9.59521ZM569.04 9.59521H575.039V6.59521H569.04V9.59521ZM581.038 9.59521H587.037V6.59521H581.038V9.59521ZM593.036 9.59521H599.035V6.59521H593.036V9.59521ZM605.035 9.59521H611.034V6.59521H605.035V9.59521ZM617.033 9.59521H623.032V6.59521H617.033V9.59521ZM629.031 9.59521H635.03V6.59521H629.031V9.59521ZM641.029 9.59521H647.028V6.59521H641.029V9.59521ZM653.027 9.59521H659.026V6.59521H653.027V9.59521ZM665.025 9.59521H671.024V6.59521H665.025V9.59521ZM677.024 9.59521H683.023V6.59521H677.024V9.59521ZM689.022 9.59521H695.021V6.59521H689.022V9.59521ZM701.02 9.59521H707.019V6.59521H701.02V9.59521ZM713.018 9.59521H719.017V6.59521H713.018V9.59521ZM725.016 9.59521H731.015V6.59521H725.016V9.59521ZM737.014 9.59521H743.013V6.59521H737.014V9.59521ZM749.013 9.59521H755.012V6.59521H749.013V9.59521ZM761.011 9.59521H767.01V6.59521H761.011V9.59521ZM773.009 9.59521H779.008V6.59521H773.009V9.59521ZM785.007 9.59521H791.006V6.59521H785.007V9.59521ZM797.005 9.59521H803.004V6.59521H797.005V9.59521ZM809.003 9.59521H815.002V6.59521H809.003V9.59521ZM821.002 9.59521H827.001V6.59521H821.002V9.59521ZM833 9.59521H838.999V6.59521H833V9.59521ZM844.998 9.59521H850.997V6.59521H844.998V9.59521ZM856.996 9.59521H862.995V6.59521H856.996V9.59521ZM868.994 9.59521H874.993V6.59521H868.994V9.59521ZM880.992 9.59521H886.992V6.59521H880.992V9.59521ZM892.991 9.59521H898.99V6.59521H892.991V9.59521ZM904.989 9.59521H910.988V6.59521H904.989V9.59521ZM916.987 9.59521H922.986V6.59521H916.987V9.59521ZM928.985 9.59521H934.984V6.59521H928.985V9.59521ZM940.983 9.59521H946.982V6.59521H940.983V9.59521ZM952.981 9.59521H958.98V6.59521H952.981V9.59521ZM964.98 9.59521H970.979V6.59521H964.98V9.59521ZM976.978 9.59521H982.977V6.59521H976.978V9.59521ZM988.976 9.59521H994.975V6.59521H988.976V9.59521ZM1000.97 9.59521H1006.97V6.59521H1000.97V9.59521ZM1012.97 9.59521H1018.97V6.59521H1012.97V9.59521ZM1024.97 9.59521H1030.97V6.59521H1024.97V9.59521ZM1036.97 9.59521H1042.97V6.59521H1036.97V9.59521ZM1048.97 9.59521H1054.97V6.59521H1048.97V9.59521ZM1060.97 9.59521H1066.96V6.59521H1060.97V9.59521ZM1072.96 9.59521H1078.96V6.59521H1072.96V9.59521ZM1084.96 9.59521H1090.96V6.59521H1084.96V9.59521ZM1096.96 9.59521H1102.96V6.59521H1096.96V9.59521ZM1108.96 9.59521H1114.96V6.59521H1108.96V9.59521ZM1120.96 9.59521H1126.96V6.59521H1120.96V9.59521ZM1132.95 9.59521H1138.95V6.59521H1132.95V9.59521ZM1144.95 9.59521H1150.95V6.59521H1144.95V9.59521ZM1156.95 9.59521H1162.95V6.59521H1156.95V9.59521ZM1168.95 9.59521H1174.95V6.59521H1168.95V9.59521ZM1180.95 9.59521H1186.95V6.59521H1180.95V9.59521ZM1192.95 9.59521H1198.95V6.59521H1192.95V9.59521ZM1204.94 9.59521H1210.94V6.59521H1204.94V9.59521ZM1216.94 9.59521H1222.94V6.59521H1216.94V9.59521ZM1228.94 9.59521H1234.94V6.59521H1228.94V9.59521ZM1240.94 9.59521H1246.94V6.59521H1240.94V9.59521ZM1252.94 9.59521H1258.94V6.59521H1252.94V9.59521ZM1264.94 9.59521H1270.94V6.59521H1264.94V9.59521ZM1276.93 9.59521H1282.93V6.59521H1276.93V9.59521ZM1288.93 9.59521H1294.93V6.59521H1288.93V9.59521ZM1300.93 9.59521H1306.93V6.59521H1300.93V9.59521ZM1312.93 9.59521H1318.93V6.59521H1312.93V9.59521ZM1324.93 9.59521H1330.93V6.59521H1324.93V9.59521ZM1336.93 9.59521H1342.93V6.59521H1336.93V9.59521ZM1348.92 9.59521H1354.92V6.59521H1348.92V9.59521ZM1360.92 9.59521H1366.92V6.59521H1360.92V9.59521ZM1372.92 9.59521H1378.92V6.59521H1372.92V9.59521ZM1384.92 9.59521H1390.92V6.59521H1384.92V9.59521ZM1396.92 9.59521H1402.92V6.59521H1396.92V9.59521ZM1408.92 9.59521H1414.91V6.59521H1408.92V9.59521ZM1420.91 9.59521H1426.91V6.59521H1420.91V9.59521ZM1432.91 9.59521H1438.91V6.59521H1432.91V9.59521ZM1444.91 9.59521H1450.91V6.59521H1444.91V9.59521ZM1456.91 9.59521H1462.91V6.59521H1456.91V9.59521ZM1468.91 9.59521H1474.91V6.59521H1468.91V9.59521ZM1480.91 9.59521H1486.9V6.59521H1480.91V9.59521ZM1492.9 9.59521H1498.9V6.59521H1492.9V9.59521ZM1504.9 9.59521H1510.9V6.59521H1504.9V9.59521ZM1516.9 9.59521H1522.9V6.59521H1516.9V9.59521ZM1528.9 9.59521H1534.9V6.59521H1528.9V9.59521ZM1540.9 9.59521H1546.9V6.59521H1540.9V9.59521ZM1552.9 9.59521H1558.89V6.59521H1552.9V9.59521ZM1564.89 9.59521H1570.89V6.59521H1564.89V9.59521ZM1576.89 9.59521H1582.89V6.59521H1576.89V9.59521ZM1588.89 9.59521H1594.89V6.59521H1588.89V9.59521ZM1600.89 9.59521H1606.89V6.59521H1600.89V9.59521ZM1612.89 9.59521H1618.89V6.59521H1612.89V9.59521ZM1624.88 9.59521H1630.88V6.59521H1624.88V9.59521ZM1636.88 9.59521H1642.88V6.59521H1636.88V9.59521ZM1648.88 9.59521H1654.88V6.59521H1648.88V9.59521ZM1660.88 9.59521H1663.87V6.59521H1660.88V9.59521Z" fill="white"/>
</svg>
